<svg xmlns="http://www.w3.org/2000/svg" width="512" height="512" viewBox="0 0 512 512" role="img" aria-labelledby="title desc">
  <title id="title">AlphaStocks Maskable Icon</title>
  <desc id="desc">Full-bleed gradient background for maskable display.</desc>
  <defs>
    <linearGradient id="maskableGradient" x1="0%" y1="0%" x2="100%" y2="100%">
      <stop offset="0%" stop-color="#1F4ED8" />
      <stop offset="100%" stop-color="#60A5FA" />
    </linearGradient>
    <linearGradient id="maskableAlpha" x1="0%" y1="0%" x2="0%" y2="100%">
      <stop offset="0%" stop-color="#FFFFFF" stop-opacity="0.95" />
      <stop offset="100%" stop-color="#E0F4FF" stop-opacity="0.82" />
    </linearGradient>
  </defs>
  <rect x="0" y="0" width="512" height="512" rx="128" fill="url(#maskableGradient)" />
  <path d="M256 120c-70.7 0-128 60.8-128 135.7 0 76.1 57.3 136.3 128 136.3 18.7 0 36.8-4.2 53.1-12.3l37 70.8c3.6 6.9 11.1 11.3 19.2 11.3H400c8.8 0 16-7.2 16-16 0-2.6-.6-5.2-1.8-7.5l-55.6-107c18.1-24.4 28.4-55.2 28.4-88.6 0-74.9-57.3-135.7-128-135.7Zm0 76c32.1 0 58 26.9 58 59.7 0 33-25.9 60.3-58 60.3s-58-27.3-58-60.3c0-32.8 25.9-59.7 58-59.7Z" fill="url(#maskableAlpha)" />
</svg>
