<svg xmlns="http://www.w3.org/2000/svg" width="192" height="192" viewBox="0 0 512 512" role="img" aria-labelledby="title desc">
  <title id="title">AlphaStocks Workspace Icon Small</title>
  <desc id="desc">Rounded square gradient with stylised alpha glyph sized for 192 pixels.</desc>
  <defs>
    <linearGradient id="bgGradientSmall" x1="0%" y1="0%" x2="100%" y2="100%">
      <stop offset="0%" stop-color="#2F80ED" />
      <stop offset="100%" stop-color="#56CCF2" />
    </linearGradient>
    <linearGradient id="alphaGradientSmall" x1="0%" y1="0%" x2="0%" y2="100%">
      <stop offset="0%" stop-color="#FFFFFF" stop-opacity="0.95" />
      <stop offset="100%" stop-color="#E0F4FF" stop-opacity="0.85" />
    </linearGradient>
  </defs>
  <rect x="32" y="32" width="448" height="448" rx="96" fill="url(#bgGradientSmall)" />
  <path d="M256 134c-58.6 0-106 50.4-106 113.5 0 63.6 47.4 114.5 106 114.5 14.8 0 29.4-3.2 42.5-9.2l29.7 56.9c3.6 6.9 11.1 11.3 19.2 11.3H380c8.8 0 16-7.2 16-16 0-2.6-.6-5.2-1.8-7.5l-46.8-89.6c14.8-19.8 23.6-45 23.6-73.4 0-63.1-47.4-113.5-106-113.5Zm0 64c27.4 0 50 22.8 50 49.5 0 27.3-22.6 50.5-50 50.5s-50-23.2-50-50.5c0-26.7 22.6-49.5 50-49.5Z" fill="url(#alphaGradientSmall)" />
</svg>
