<svg xmlns="http://www.w3.org/2000/svg" viewBox="0 0 512 512" role="img" aria-label="Market Tycoon investor game maskable icon">
  <defs>
    <linearGradient id="bg" x1="0%" y1="0%" x2="100%" y2="100%">
      <stop offset="0%" stop-color="#111828" />
      <stop offset="50%" stop-color="#0B1120" />
      <stop offset="100%" stop-color="#070c16" />
    </linearGradient>
    <linearGradient id="gold" x1="0%" y1="0%" x2="0%" y2="100%">
      <stop offset="0%" stop-color="#f5e3b3" />
      <stop offset="40%" stop-color="#e2c273" />
      <stop offset="100%" stop-color="#b48426" />
    </linearGradient>
    <linearGradient id="goldStroke" x1="0%" y1="0%" x2="0%" y2="100%">
      <stop offset="0%" stop-color="#f8eaca" />
      <stop offset="100%" stop-color="#c79335" />
    </linearGradient>
    <filter id="glow" x="-10%" y="-10%" width="120%" height="120%">
      <feGaussianBlur stdDeviation="5" result="blur" />
      <feMerge>
        <feMergeNode in="blur" />
        <feMergeNode in="SourceGraphic" />
      </feMerge>
    </filter>
  </defs>
  <rect width="512" height="512" rx="96" fill="url(#bg)" />
  <g transform="translate(76 64) scale(0.72)" filter="url(#glow)">
    <rect x="162" y="200" width="52" height="152" rx="12" fill="url(#gold)" stroke="url(#goldStroke)" stroke-width="4" />
    <rect x="220" y="168" width="52" height="184" rx="12" fill="url(#gold)" stroke="url(#goldStroke)" stroke-width="4" />
    <rect x="278" y="132" width="52" height="220" rx="12" fill="url(#gold)" stroke="url(#goldStroke)" stroke-width="4" />
    <path d="M204 136h104l-18 42h-68z" fill="url(#gold)" stroke="url(#goldStroke)" stroke-width="4" />
    <path d="M238 118h36l-11 24h-14z" fill="url(#gold)" stroke="url(#goldStroke)" stroke-width="3" />
    <path d="M219 126l-22-20 10 34z" fill="url(#gold)" stroke="url(#goldStroke)" stroke-width="3" />
    <path d="M293 126l22-20-10 34z" fill="url(#gold)" stroke="url(#goldStroke)" stroke-width="3" />
    <path d="M248 116l10-28 10 28z" fill="url(#gold)" stroke="url(#goldStroke)" stroke-width="3" />
    <text x="256" y="388" fill="#f3dca5" font-family="'Times New Roman', Georgia, serif" font-size="44" font-weight="700" text-anchor="middle" letter-spacing="1.5">MARKET TYCOON</text>
    <text x="256" y="428" fill="#d7b872" font-family="'Times New Roman', Georgia, serif" font-size="26" font-weight="600" text-anchor="middle" letter-spacing="4">INVESTOR GAME</text>
  </g>
</svg>
