<svg xmlns="http://www.w3.org/2000/svg" viewBox="0 0 128 128" role="img" aria-label="Market Tycoon crest">
  <defs>
    <linearGradient id="bg" x1="0%" y1="0%" x2="100%" y2="100%">
      <stop offset="0%" stop-color="#111828" />
      <stop offset="50%" stop-color="#0B1120" />
      <stop offset="100%" stop-color="#070c16" />
    </linearGradient>
    <linearGradient id="gold" x1="0%" y1="0%" x2="0%" y2="100%">
      <stop offset="0%" stop-color="#f5e3b3" />
      <stop offset="40%" stop-color="#e2c273" />
      <stop offset="100%" stop-color="#b48426" />
    </linearGradient>
    <linearGradient id="goldStroke" x1="0%" y1="0%" x2="0%" y2="100%">
      <stop offset="0%" stop-color="#f8eaca" />
      <stop offset="100%" stop-color="#c79335" />
    </linearGradient>
  </defs>
  <rect width="128" height="128" rx="20" fill="url(#bg)" />
  <g transform="translate(20 18) scale(0.68)">
    <rect x="26" y="40" width="22" height="50" rx="4" fill="url(#gold)" stroke="url(#goldStroke)" stroke-width="2" />
    <rect x="52" y="28" width="22" height="62" rx="4" fill="url(#gold)" stroke="url(#goldStroke)" stroke-width="2" />
    <rect x="78" y="12" width="22" height="78" rx="4" fill="url(#gold)" stroke="url(#goldStroke)" stroke-width="2" />
    <path d="M32 12h68l-12 24H44z" fill="url(#gold)" stroke="url(#goldStroke)" stroke-width="2" />
    <path d="M56 6h20l-6 12H62z" fill="url(#gold)" stroke="url(#goldStroke)" stroke-width="1.5" />
    <path d="M46 10l-14-14 6 24z" fill="url(#gold)" stroke="url(#goldStroke)" stroke-width="1.5" />
    <path d="M86 10l14-14-6 24z" fill="url(#gold)" stroke="url(#goldStroke)" stroke-width="1.5" />
    <path d="M64 4l6-14 6 14z" fill="url(#gold)" stroke="url(#goldStroke)" stroke-width="1.5" />
  </g>
</svg>
