<svg xmlns="http://www.w3.org/2000/svg" viewBox="0 0 1800 1200" role="img" aria-label="Night city skyline for Investor Game background">
  <defs>
    <linearGradient id="sky" x1="0" y1="0" x2="0" y2="1">
      <stop offset="0%" stop-color="#0a1324" />
      <stop offset="60%" stop-color="#0f1e3a" />
      <stop offset="100%" stop-color="#102545" />
    </linearGradient>
    <linearGradient id="water" x1="0" y1="0" x2="0" y2="1">
      <stop offset="0%" stop-color="#0d1a32" />
      <stop offset="100%" stop-color="#0b172c" />
    </linearGradient>
    <linearGradient id="windows" x1="0" y1="0" x2="0" y2="1">
      <stop offset="0%" stop-color="#ffd27d" />
      <stop offset="100%" stop-color="#f2ad3c" />
    </linearGradient>
    <linearGradient id="glow" x1="0" y1="0" x2="0" y2="1">
      <stop offset="0%" stop-color="#0f1a2d" stop-opacity="0.8" />
      <stop offset="100%" stop-color="#0f1a2d" stop-opacity="0.35" />
    </linearGradient>
  </defs>
  <rect width="1800" height="1200" fill="url(#sky)" />
  <g id="stars" fill="#f6d277">
    <circle cx="120" cy="80" r="2" />
    <circle cx="280" cy="140" r="2" />
    <circle cx="460" cy="90" r="2" />
    <circle cx="620" cy="120" r="2" />
    <circle cx="780" cy="60" r="2" />
    <circle cx="960" cy="130" r="2" />
    <circle cx="1120" cy="70" r="2" />
    <circle cx="1280" cy="110" r="2" />
    <circle cx="1460" cy="50" r="2" />
    <circle cx="1600" cy="140" r="2" />
    <circle cx="260" cy="60" r="2" />
    <circle cx="520" cy="150" r="2" />
    <circle cx="820" cy="170" r="2" />
    <circle cx="1040" cy="40" r="2" />
    <circle cx="1380" cy="160" r="2" />
    <circle cx="1720" cy="90" r="2" />
    <circle cx="150" cy="210" r="2" />
    <circle cx="430" cy="200" r="2" />
    <circle cx="710" cy="210" r="2" />
    <circle cx="990" cy="200" r="2" />
    <circle cx="1270" cy="210" r="2" />
    <circle cx="1550" cy="200" r="2" />
  </g>
  <g id="skyline" fill="#0d172b">
    <rect x="40" y="520" width="120" height="360" />
    <rect x="190" y="440" width="140" height="440" />
    <rect x="360" y="560" width="110" height="320" />
    <rect x="500" y="410" width="160" height="470" />
    <rect x="690" y="480" width="140" height="400" />
    <rect x="860" y="350" width="120" height="530" />
    <rect x="1000" y="500" width="150" height="380" />
    <rect x="1180" y="420" width="130" height="460" />
    <rect x="1330" y="470" width="140" height="410" />
    <rect x="1500" y="390" width="170" height="490" />
  </g>
  <g id="windows" fill="url(#windows)">
    <rect x="210" y="460" width="20" height="30" />
    <rect x="250" y="500" width="20" height="30" />
    <rect x="230" y="540" width="20" height="30" />
    <rect x="270" y="580" width="20" height="30" />
    <rect x="520" y="430" width="22" height="32" />
    <rect x="560" y="470" width="22" height="32" />
    <rect x="600" y="510" width="22" height="32" />
    <rect x="540" y="550" width="22" height="32" />
    <rect x="580" y="590" width="22" height="32" />
    <rect x="905" y="370" width="22" height="32" />
    <rect x="905" y="420" width="22" height="32" />
    <rect x="905" y="470" width="22" height="32" />
    <rect x="940" y="400" width="22" height="32" />
    <rect x="940" y="450" width="22" height="32" />
    <rect x="720" y="500" width="18" height="28" />
    <rect x="750" y="540" width="18" height="28" />
    <rect x="720" y="580" width="18" height="28" />
    <rect x="750" y="620" width="18" height="28" />
    <rect x="1060" y="520" width="20" height="30" />
    <rect x="1100" y="560" width="20" height="30" />
    <rect x="1060" y="600" width="20" height="30" />
    <rect x="1100" y="640" width="20" height="30" />
    <rect x="1360" y="490" width="18" height="28" />
    <rect x="1390" y="530" width="18" height="28" />
    <rect x="1360" y="570" width="18" height="28" />
    <rect x="1390" y="610" width="18" height="28" />
    <rect x="1540" y="410" width="22" height="32" />
    <rect x="1580" y="450" width="22" height="32" />
    <rect x="1540" y="490" width="22" height="32" />
    <rect x="1580" y="530" width="22" height="32" />
  </g>
  <rect x="0" y="880" width="1800" height="320" fill="url(#water)" />
  <g opacity="0.5" fill="#f5c16d">
    <rect x="100" y="900" width="90" height="6" />
    <rect x="260" y="940" width="140" height="6" />
    <rect x="520" y="980" width="180" height="8" />
    <rect x="820" y="920" width="210" height="8" />
    <rect x="1110" y="970" width="160" height="6" />
    <rect x="1400" y="930" width="190" height="8" />
  </g>
  <rect width="1800" height="1200" fill="url(#glow)" />
</svg>
