<svg xmlns="http://www.w3.org/2000/svg" viewBox="0 0 512 512" role="img" aria-label="Market Tycoon Investor Game emblem">
  <defs>
    <linearGradient id="golden" x1="0%" y1="0%" x2="0%" y2="100%">
      <stop offset="0%" stop-color="#f8d77b" />
      <stop offset="50%" stop-color="#d9b14c" />
      <stop offset="100%" stop-color="#b6852f" />
    </linearGradient>
    <filter id="shadow" x="-20%" y="-20%" width="140%" height="140%" color-interpolation-filters="sRGB">
      <feDropShadow dx="0" dy="6" stdDeviation="8" flood-color="#000" flood-opacity="0.35" />
    </filter>
  </defs>
  <rect width="512" height="512" rx="42" fill="#0d121c" />
  <g filter="url(#shadow)">
    <path d="M172 128h60l-27 52h-60z" fill="url(#golden)" />
    <path d="M253 102h60l-30 60h-60z" fill="url(#golden)" />
    <path d="M336 128h60l-27 52h-60z" fill="url(#golden)" />
    <path d="M212 188h40v136h-40z" fill="url(#golden)" />
    <path d="M260 164h44v160h-44z" fill="url(#golden)" />
    <path d="M312 212h44v112h-44z" fill="url(#golden)" />
    <path d="M242 76c20 9 36 27 44 48 7-21 24-39 44-48l-21 74h-46z" fill="url(#golden)" />
  </g>
  <g transform="translate(0 32)" fill="url(#golden)" font-family="'Trajan Pro', 'Cinzel', 'Times New Roman', serif" text-anchor="middle">
    <text x="256" y="320" font-size="72" letter-spacing="4">MARKET TYCOON</text>
    <text x="256" y="380" font-size="38" letter-spacing="6" opacity="0.9">INVESTOR GAME</text>
  </g>
</svg>
